<svg width="176" height="52" viewBox="0 0 176 52" fill="none" xmlns="http://www.w3.org/2000/svg">
<path d="M171.266 15.1176C171.176 16.4306 170.77 17.3934 170.092 18.0061C169.415 18.6188 168.331 18.9252 166.932 18.9252C165.352 18.9252 164.223 18.4 163.5 17.3059C162.778 16.2555 162.417 14.5487 162.417 12.2291V10.6098C162.417 8.37775 162.823 6.75844 163.591 5.70807C164.358 4.6577 165.487 4.13252 167.022 4.13252C168.422 4.13252 169.46 4.43888 170.137 5.05159C170.815 5.6643 171.221 6.67091 171.311 8.0714H175.871C175.646 5.6643 174.743 3.82616 173.162 2.46944C171.582 1.15648 169.551 0.5 166.977 0.5C165.126 0.5 163.5 0.937653 162.101 1.76919C160.701 2.60073 159.618 3.82616 158.895 5.40171C158.128 6.97726 157.766 8.77164 157.766 10.8724V12.1853C157.766 15.424 158.579 17.9624 160.205 19.8005C161.83 21.6386 164.042 22.5577 166.887 22.5577C169.46 22.5577 171.582 21.9012 173.162 20.5883C174.743 19.2753 175.646 17.4372 175.781 15.1176H171.266V15.1176ZM131.58 0.806357V22.2514H136.14V16.3868L135.688 6.27702L141.648 22.2514H144.763L150.723 6.27702L150.272 16.3868V22.2514H154.832V0.806357H148.827L143.183 16.343L137.494 0.806357H131.58ZM124.311 15.1176C124.22 16.4306 123.814 17.3934 123.137 18.0061C122.46 18.6188 121.376 18.9252 119.976 18.9252C118.396 18.9252 117.267 18.4 116.545 17.3059C115.823 16.2555 115.461 14.5487 115.461 12.2291V10.6098C115.461 8.37775 115.868 6.75844 116.635 5.70807C117.403 4.6577 118.532 4.13252 120.067 4.13252C121.466 4.13252 122.505 4.43888 123.182 5.05159C123.859 5.6643 124.266 6.67091 124.356 8.0714H128.916C128.69 5.6643 127.787 3.82616 126.207 2.46944C124.627 1.15648 122.595 0.5 120.021 0.5C118.17 0.5 116.545 0.937653 115.145 1.76919C113.746 2.60073 112.662 3.82616 111.94 5.40171C111.172 6.97726 110.811 8.77164 110.811 10.8724V12.1853C110.811 15.424 111.624 17.9624 113.249 19.8005C114.874 21.6386 117.087 22.5577 119.931 22.5577C122.505 22.5577 124.627 21.9012 126.207 20.5883C127.787 19.2753 128.69 17.4372 128.826 15.1176H124.311V15.1176ZM98.8012 0.806357H94.9183L91.3063 16.0367L88.3265 0.806357H83.7664L88.6877 22.2514H93.2929L96.9049 7.89634L100.517 22.2514H105.122L110.043 0.806357H105.483L102.503 16.0804L98.8012 0.806357Z" fill="#00AEEF"/>
<path d="M55.9062 18.233C53.1361 17.427 51.0925 14.8744 51.0925 11.8741C51.0925 11.3367 51.1379 10.7994 51.2742 10.3068L55.6791 10.8441C55.6791 10.8441 57.3594 10.9337 57.3139 13.8445C57.2231 16.7105 55.9062 18.233 55.9062 18.233Z" fill="#00AEEF"/>
<path d="M59.8108 18.233C62.5809 17.427 64.6244 14.8744 64.6244 11.8741C64.6244 11.3367 64.579 10.7994 64.4428 10.3068L60.0378 10.8441C60.0378 10.8441 58.3576 10.9337 58.403 13.8445C58.4938 16.7105 59.8108 18.233 59.8108 18.233Z" fill="#00AEEF"/>
<path d="M57.8586 7.08271C58.4036 7.08271 58.9031 7.53052 58.9031 8.11268C58.9031 8.56049 58.5852 8.87395 58.2219 9.05308C58.1765 9.09786 58.1311 9.09786 58.1311 9.18742C58.1311 9.27698 58.3582 9.27698 58.449 9.32177L64.3525 9.99348C63.5351 7.21705 60.9466 5.2019 57.8586 5.2019C54.816 5.2019 52.1822 7.21705 51.3647 9.99348L57.2683 9.32177C57.3591 9.32177 57.5862 9.27698 57.5862 9.18742C57.5862 9.09786 57.5408 9.09786 57.4953 9.05308C57.132 8.87395 56.8142 8.51571 56.8142 8.11268C56.8596 7.53052 57.3137 7.08271 57.8586 7.08271Z" fill="#00AEEF"/>
<path d="M60.5378 22.9349L60.9465 22.711C60.9465 22.711 59.0392 20.1584 54.8159 20.1584C52.6361 20.1584 51.5008 21.0093 50.0022 21.0093C50.0022 21.0093 49.3665 21.0988 48.7761 20.6958C48.7761 20.6958 49.5027 21.7258 52.1366 21.7258C54.0439 21.7258 55.4517 20.6063 56.7686 20.6063C58.6305 20.651 59.9928 22.3079 60.5378 22.9349Z" fill="#00AEEF"/>
<path d="M54.678 22.9351L54.2693 22.7112C54.2693 22.7112 56.1766 20.1587 60.3999 20.1587C62.5796 20.1587 63.7149 21.0095 65.2135 21.0095C65.2135 21.0095 65.8493 21.0991 66.4397 20.6961C66.4397 20.6961 65.7131 21.726 63.0792 21.726C61.1719 21.726 59.7641 20.6065 58.4472 20.6065C56.6307 20.6513 55.2229 22.3082 54.678 22.9351Z" fill="#00AEEF"/>
<path d="M52.6348 19.935C52.5439 20.1142 51.7265 19.8903 51.1816 20.0694C50.5458 20.2485 47.3216 20.6515 45.9138 17.293C45.9138 17.293 47.2762 18.726 48.3206 18.8155C49.3651 18.9051 50.5004 19.1738 51.4995 19.7111L51.7265 19.7559C51.7265 19.7559 51.6811 19.6664 51.5903 19.6216C51.4541 19.532 50.455 19.2185 49.9555 17.6512C49.7284 16.8452 49.7738 16.263 49.6376 15.8152C49.6376 15.8152 50.7275 17.0243 51.1816 17.7856C51.6811 18.5916 51.7265 19.4425 52.6348 19.935Z" fill="#00AEEF"/>
<path d="M49.3192 18.278C49.2284 18.3675 49.0468 18.2332 48.956 18.1884C48.8651 18.1436 48.3202 17.9197 47.4119 17.6062C46.5037 17.2928 44.8235 15.8598 44.9597 13.4416C44.9597 13.4416 45.1868 14.3372 45.9134 14.9642C46.5945 15.5463 46.867 15.6359 47.2757 16.1285C47.6844 16.6211 48.6381 17.7406 48.6835 17.7406C48.7289 17.7406 48.7289 17.651 48.6381 17.6062C48.5472 17.5615 48.3202 16.9345 48.1385 16.7106C47.9569 16.4867 47.5028 15.0537 48.1839 13.3073C48.1839 13.3073 48.9559 14.6059 48.9105 15.9046C48.8651 17.2032 48.8197 16.8897 49.1376 17.9645C49.183 17.9645 49.3647 18.2332 49.3192 18.278Z" fill="#00AEEF"/>
<path d="M47.231 15.0984C47.1856 15.1432 47.0039 14.8745 46.8223 14.6058C46.6861 14.3371 45.6416 13.2624 45.5053 13.0384C45.3691 12.8145 44.1884 11.4263 45.0966 9.32162C45.0966 9.32162 45.1875 9.27684 45.1875 9.76943C45.1875 10.262 45.6416 11.3368 46.0049 11.8294C46.3682 12.2772 46.7315 13.0384 46.7769 13.8445C46.7769 13.8445 46.8223 13.9789 46.8677 14.0236C46.9131 14.0684 46.9131 13.8893 46.9131 13.8893C46.9131 13.8893 46.8677 13.1728 46.8677 12.6354C46.8677 12.1428 47.0948 11.292 47.5943 10.7994C47.5943 10.7994 47.8214 10.5755 47.9576 10.262C47.9576 10.262 48.0484 10.0829 48.1846 9.94855C48.1846 9.94855 48.2755 11.3815 47.7759 12.6802C47.2764 13.9789 47.1402 14.2028 47.1856 14.9193C47.231 14.9193 47.231 15.0984 47.231 15.0984Z" fill="#00AEEF"/>
<path d="M46.4138 11.2472C46.3684 11.2472 46.3229 11.0681 46.3229 10.9337C46.2775 10.7994 46.1413 9.99331 46.0505 9.85897C45.9597 9.67985 45.5964 8.91857 45.5509 7.97816C45.5055 7.03776 45.9597 5.78389 46.9133 4.79871C46.9133 4.79871 46.8679 5.11217 46.6408 5.73911C46.4138 6.41083 46.55 6.99298 46.55 7.12732C46.5954 7.21689 46.6408 7.97816 46.6408 8.33641C46.6408 8.6051 46.55 9.59028 46.5046 9.76941C46.5046 9.76941 46.4592 9.90375 46.55 9.90375C46.6408 9.90375 46.6408 9.81419 46.6408 9.81419C46.6408 9.81419 46.6862 9.05291 47.2766 8.38119C47.8669 7.70948 48.866 7.26167 49.0477 6.9482C49.0477 6.9482 48.9568 8.02295 47.7761 9.27682C46.6862 10.3963 47.0041 9.81419 46.6862 10.7546C46.6862 10.7546 46.55 11.1128 46.55 11.1576C46.4592 11.2472 46.4138 11.2472 46.4138 11.2472Z" fill="#00AEEF"/>
<path d="M47.0498 7.57521C47.0498 7.57521 47.0044 7.44087 47.2315 7.08262C47.4131 6.76915 47.2315 6.14222 47.4586 5.29138C47.6856 4.44054 48.1851 2.96276 49.9108 2.06714C49.9108 2.06714 49.7291 2.24626 49.6383 2.33583C49.5475 2.47017 49.0934 3.36579 48.9571 3.94794C48.8209 4.57488 48.2306 5.60484 48.0035 5.82875C47.7764 6.05266 47.8673 6.09744 47.8673 6.09744C47.8673 6.09744 47.9581 6.05266 48.0943 5.91831C48.1851 5.73919 48.7755 5.11225 49.4113 4.97791C50.047 4.84357 51.0461 4.5301 51.1369 4.48532C51.1369 4.48532 50.047 5.60484 49.048 6.14222C48.0489 6.72437 47.9127 6.54525 47.3223 7.30653C47.3223 7.30653 47.0953 7.57521 47.0498 7.57521Z" fill="#00AEEF"/>
<path d="M49.4558 4.30618C49.4558 4.30618 49.4558 4.21661 49.6375 4.03749C49.8191 3.85837 50.0008 3.36577 50.3186 2.87318C50.6365 2.38059 51.3631 1.12672 53.2704 0.858032C53.2704 0.858032 52.6801 1.26106 52.5892 1.39541C52.4984 1.52975 51.9535 2.24625 51.681 2.51493C51.4085 2.78362 50.7273 3.27621 50.5003 3.41055C50.5003 3.41055 50.364 3.50012 50.4095 3.5449C50.4549 3.58968 50.5457 3.50012 50.5457 3.50012C50.5457 3.50012 51.2269 3.00752 51.9989 2.96274C52.8163 2.91796 53.6337 2.96274 53.7699 3.00752C53.7699 3.00752 53.0433 3.50012 51.2269 3.81358C49.4558 4.12705 49.7737 4.12705 49.5012 4.30618C49.592 4.30618 49.5012 4.35096 49.4558 4.30618Z" fill="#00AEEF"/>
<path d="M52.6357 2.2462C52.6357 2.2462 52.6812 2.15664 52.9536 2.06708C53.2261 1.97751 53.2261 1.70883 54.0889 1.26102C54.9517 0.813205 55.86 0.589299 56.8136 0.992329C56.8136 0.992329 56.4049 1.03711 56.3595 1.08189C56.3141 1.12667 55.6329 1.26102 55.4513 1.39536C55.2696 1.48492 54.316 1.93273 53.9073 1.97751C53.4986 2.06708 53.7256 2.06708 53.7256 2.06708C53.7256 2.06708 53.8164 2.11186 53.9073 2.11186C53.9981 2.11186 54.8609 2.02229 55.4059 2.20142C55.9508 2.38054 55.9508 2.47011 56.1779 2.55967C56.4049 2.64923 56.6774 2.69401 56.7228 2.78357C56.7228 2.78357 56.1779 2.82835 55.8146 2.82835C55.4967 2.82835 54.5885 2.73879 54.1797 2.55967C53.771 2.38054 53.2715 2.29098 53.0899 2.33576C52.9082 2.29098 52.7266 2.29098 52.6357 2.2462Z" fill="#00AEEF"/>
<path d="M56.1782 1.84346C56.1782 1.84346 56.2236 1.79868 56.4507 1.75389C56.6778 1.70911 56.7686 1.57477 57.3589 1.44043C57.9493 1.30608 58.8575 1.21652 59.6749 1.75389C59.6749 1.75389 59.1754 1.75389 59.0392 1.75389C58.9483 1.75389 57.9493 1.93302 57.7222 1.93302C57.4952 1.93302 57.041 1.84346 56.9956 1.88824C56.9502 1.9778 57.4043 2.06736 57.4952 2.06736C57.586 2.11214 57.9039 2.11214 58.3126 2.51517C58.7213 2.9182 59.0392 3.14211 59.0846 3.18689C59.0846 3.18689 57.8585 2.9182 57.5406 2.73908C57.2227 2.55995 56.6778 2.02258 56.5869 2.02258C56.5415 1.93302 56.1782 1.84346 56.1782 1.84346Z" fill="#00AEEF"/>
<path d="M59.084 2.3359C59.084 2.3359 59.856 2.29112 60.4463 2.64937C61.0367 3.00761 61.4908 3.45543 61.5362 3.76889C61.5362 3.76889 61.2183 3.50021 60.9913 3.45542C60.7642 3.41064 60.1739 3.0524 60.0376 3.00761C59.9468 2.91805 59.2202 2.42546 59.084 2.3359Z" fill="#00AEEF"/>
<path d="M62.7615 20.069C62.7615 20.069 62.8523 19.9795 63.261 19.6212C63.6243 19.3078 63.7151 18.8152 64.1692 18.0987C64.578 17.3822 64.9412 16.8896 65.7587 16.1283C65.7587 16.1283 65.6224 16.6657 65.577 16.8448C65.577 17.0239 65.4408 17.9643 64.9412 18.5465C64.4871 19.0838 64.4417 19.2182 63.8968 19.5764C63.8968 19.5764 63.6697 19.7108 63.7151 19.7556C63.7151 19.8003 64.0784 19.7556 64.0784 19.7556C64.0784 19.7556 64.4871 19.6212 64.6234 19.5317C64.7596 19.4421 65.3045 19.1734 65.5316 19.0838C65.7587 18.9943 65.9403 18.9047 66.4398 18.7704C66.9394 18.636 68.7558 18.1882 69.437 17.0239C69.437 17.0239 69.21 17.6956 68.9829 18.0091C68.7104 18.3226 67.2572 20.2482 65.1683 20.2034C65.1683 20.2034 64.3509 20.1586 63.9422 20.069C63.5335 19.9795 63.3518 19.9795 63.3064 20.0242C63.2156 20.069 62.8523 20.1138 62.7615 20.069Z" fill="#00AEEF"/>
<path d="M67.3929 13.1728C67.3929 13.1728 66.6209 14.3819 66.4392 16.0836C66.2576 17.7852 66.5755 17.2927 66.2576 18.0539C66.2576 18.0539 66.1668 18.2331 66.2122 18.2778C66.2576 18.2778 66.3938 18.1883 66.9388 17.8748C67.4837 17.5613 68.0286 17.6509 69.2094 16.5314C70.3901 15.4118 70.6171 13.2176 70.6625 13.0385C70.6625 13.0385 70.4809 13.2176 70.3901 13.4863C70.2992 13.7997 70.1176 14.0236 70.0722 14.0684C70.0268 14.1132 68.7552 15.5014 68.619 15.591C68.4828 15.7253 67.7108 16.6209 67.5745 16.8896C67.3929 17.1583 66.9388 17.6061 66.8479 17.5613C66.8479 17.5613 66.8479 17.4718 66.8934 17.3822C66.9388 17.2927 67.3021 16.8448 67.4383 16.3075C67.5745 15.7701 67.6199 15.4118 67.6199 15.0984C67.6199 14.7401 67.3929 13.4415 67.3929 13.1728Z" fill="#00AEEF"/>
<path d="M68.4382 14.8297C68.4382 14.8297 68.3474 14.6506 68.4382 14.5162C68.4836 14.4267 68.5291 13.8445 68.302 13.3519C68.0749 12.8593 67.5754 11.5607 67.6208 10.6651C67.6662 9.76944 67.7571 9.63509 67.7571 9.63509C67.7571 9.63509 67.9841 10.3516 68.0749 10.4859C68.1658 10.6203 68.8924 11.9189 68.8469 12.6354C68.8015 13.3519 68.7561 13.5758 68.8015 13.5758C68.8469 13.5758 68.9378 13.4863 68.9378 13.3967C68.9378 13.3071 69.074 12.8146 69.3011 12.2324C69.5281 11.6502 70.4818 10.3964 70.7088 9.54553C70.7088 9.54553 71.0267 11.0233 70.1639 12.4115C69.3465 13.7997 69.2556 13.4863 68.8924 14.1132C68.5291 14.7849 68.4836 14.8297 68.4382 14.8297Z" fill="#00AEEF"/>
<path d="M69.2112 10.9336C69.1658 10.9336 69.1658 10.3515 69.0296 10.1724C68.8934 9.99323 67.5764 8.47067 67.304 6.99289C67.304 6.99289 68.1214 7.79895 68.2576 7.88852C68.3938 7.97808 68.9388 8.51545 69.1204 8.96326C69.3021 9.41107 69.2567 9.8141 69.3021 9.85888C69.3475 9.85888 69.3475 9.32151 69.3475 9.32151C69.3475 9.32151 69.3475 8.29154 69.4383 7.79895C69.5291 7.30636 69.7562 6.5003 69.6654 6.05249C69.6654 6.05249 70.1649 6.81377 70.1195 7.88852C70.0741 8.96326 69.62 9.8141 69.5745 9.94845C69.5291 10.0828 69.3475 10.6202 69.3475 10.7097C69.3475 10.7993 69.2112 10.9336 69.2112 10.9336Z" fill="#00AEEF"/>
<path d="M67.6668 3.23145C67.6668 3.23145 69.3471 4.21663 69.0746 7.53043C69.0746 7.53043 69.0746 7.66477 68.9838 7.53043C68.8929 7.35131 68.5296 6.90349 68.348 6.81393C68.1663 6.72437 66.6677 5.82875 66.032 4.44053C66.032 4.44053 66.1228 4.39575 66.259 4.5301C66.3953 4.66444 66.8494 4.88835 66.9402 4.93313C67.031 4.97791 67.5306 5.11225 67.9393 5.51528C68.348 5.91831 68.4842 6.23178 68.575 6.50046C68.575 6.50046 68.6659 6.59003 68.6205 6.32134C68.5296 6.09744 68.5296 5.91831 68.348 5.60484C68.1663 5.29138 67.9847 4.754 67.9393 4.35097C67.9393 3.99272 67.8485 3.45535 67.6668 3.23145Z" fill="#00AEEF"/>
<path d="M67.3944 4.39579C67.3944 4.39579 67.4398 4.17189 67.2582 3.85842C67.0765 3.54495 67.2127 3.1867 66.7132 2.38064C66.4407 1.93283 65.4417 1.57458 65.4417 1.57458C65.4417 1.57458 65.7142 1.97761 65.8958 2.20152C66.0775 2.42543 66.1229 2.60455 66.2137 2.69411C66.2591 2.78367 66.6224 3.14192 66.7586 3.32105C66.804 3.36583 66.8495 3.45539 66.8495 3.50017C66.8495 3.54495 66.7132 3.45539 66.6678 3.41061C66.6224 3.36583 66.032 2.91802 65.6233 2.82846C65.2146 2.73889 64.488 2.69411 64.3064 2.60455C64.3064 2.60455 65.1692 3.36583 66.1229 3.63452C67.0765 3.9032 67.3944 4.39579 67.3944 4.39579Z" fill="#00AEEF"/>
<path d="M65.3956 2.38074C65.3956 2.38074 64.5328 1.21643 62.9434 1.21643C62.9434 1.21643 63.0342 1.30599 63.2158 1.35077C63.3975 1.39556 63.7154 1.70902 63.8516 1.79858C64.0332 1.88815 64.3965 2.15683 65.3956 2.38074Z" fill="#00AEEF"/>
<path d="M17.5294 0.768921V15.2332C17.5294 16.4871 17.3024 17.6066 16.8937 18.5918C16.485 19.577 15.8946 20.383 15.1226 21.01C14.3506 21.6817 13.4878 22.1743 12.4433 22.4878C11.3988 22.8012 10.2635 22.9803 9.03742 22.9803C7.8113 22.9803 6.67601 22.8012 5.63154 22.4878C4.58706 22.1743 3.63342 21.6369 2.90683 21.01C2.13483 20.3383 1.54447 19.5322 1.13577 18.5918C0.727059 17.6066 0.5 16.4871 0.5 15.2332V0.768921H5.08659V15.2332C5.08659 16.6662 5.44989 17.6962 6.13107 18.3679C6.81224 19.0396 7.8113 19.3531 9.03742 19.3531C10.2635 19.3531 11.2626 19.0396 11.9438 18.3679C12.625 17.6962 12.9883 16.6662 12.9883 15.2332V0.768921H17.5294Z" fill="#00AEEF"/>
<path d="M39.3254 22.6666H34.7388L25.8381 8.24712V22.6666H21.2515V0.768677H25.8381L34.7842 15.1882V0.768677H39.3254V22.6666Z" fill="#00AEEF"/>
<path d="M3.81531 36.8179C2.86166 36.8179 2.08966 36.5045 1.45389 35.9223C0.863537 35.3402 0.545654 34.5341 0.545654 33.5489V33.3698C0.545654 32.6981 0.68189 32.1159 0.908949 31.5785C1.18142 31.0412 1.54471 30.6381 1.99883 30.3695C2.45295 30.1008 2.99789 29.9664 3.58825 29.9664C4.49648 29.9664 5.17766 30.2351 5.7226 30.8173C6.22213 31.3994 6.4946 32.2055 6.4946 33.2354V33.9519H2.31672C2.36213 34.3998 2.54377 34.7132 2.81625 34.9819C3.08872 35.2506 3.45201 35.3849 3.90613 35.3849C4.58731 35.3849 5.08684 35.161 5.49554 34.6684L6.35837 35.6536C6.0859 36.0119 5.7226 36.3253 5.3139 36.5493C4.81437 36.7284 4.36025 36.8179 3.81531 36.8179ZM3.58825 31.3994C3.22495 31.3994 2.95248 31.5338 2.72542 31.7577C2.49836 31.9816 2.36213 32.3398 2.31672 32.7876H4.76895V32.6533C4.76895 32.2503 4.67813 31.9816 4.45107 31.7577C4.26942 31.489 3.95154 31.3994 3.58825 31.3994Z" fill="#00AEEF"/>
<path d="M9.17438 30.1008L9.21979 30.8621C9.67391 30.2799 10.3097 29.9664 11.0817 29.9664C11.7628 29.9664 12.3078 30.1903 12.6257 30.5934C12.9436 30.9964 13.1252 31.6233 13.1252 32.4294V36.6836H11.3541V32.4742C11.3541 32.1159 11.2633 31.8472 11.1271 31.6681C10.9908 31.489 10.7638 31.3994 10.4005 31.3994C9.90096 31.3994 9.53767 31.6233 9.31061 32.0264V36.6836H7.53955V30.1008H9.17438Z" fill="#00AEEF"/>
<path d="M17.0309 34.534L18.257 30.1007H20.0735L17.8483 36.6835H16.168L13.9429 30.1007H15.7593L17.0309 34.534Z" fill="#00AEEF"/>
<path d="M20.8901 28.3989C20.8901 28.1302 20.981 27.9063 21.1626 27.7272C21.3443 27.5481 21.5713 27.4585 21.8892 27.4585C22.2071 27.4585 22.4341 27.5481 22.6158 27.7272C22.7974 27.9063 22.8883 28.1302 22.8883 28.3989C22.8883 28.6676 22.7974 28.8915 22.6158 29.0706C22.4341 29.2497 22.2071 29.3393 21.8892 29.3393C21.5713 29.3393 21.3443 29.2497 21.1626 29.0706C20.981 28.8915 20.8901 28.6676 20.8901 28.3989ZM22.752 36.6834H20.981V30.1006H22.752V36.6834Z" fill="#00AEEF"/>
<path d="M27.9762 31.7576C27.7491 31.7128 27.5221 31.7128 27.3404 31.7128C26.6593 31.7128 26.2506 31.9367 26.0235 32.3845V36.6835H24.2524V30.1007H25.8873L25.9327 30.9067C26.296 30.2798 26.7501 30.0111 27.3859 30.0111C27.5675 30.0111 27.7492 30.0559 27.9308 30.1007L27.9762 31.7576Z" fill="#00AEEF"/>
<path d="M28.3831 33.325C28.3831 32.6533 28.5193 32.0711 28.7464 31.5785C28.9734 31.086 29.3367 30.6829 29.8362 30.3695C30.2904 30.1008 30.8353 29.9664 31.4711 29.9664C32.3339 29.9664 33.0605 30.2351 33.6508 30.7725C34.1958 31.3099 34.5137 32.0711 34.6045 33.0115V33.4594C34.6045 34.4893 34.332 35.2954 33.7417 35.8775C33.1513 36.4597 32.4247 36.7732 31.4711 36.7732C30.5174 36.7732 29.7908 36.4597 29.2005 35.8775C28.6101 35.2954 28.3376 34.4445 28.3376 33.4146V33.325H28.3831ZM30.1541 33.4594C30.1541 34.0863 30.2904 34.5789 30.5174 34.8924C30.7445 35.2058 31.1078 35.3849 31.5165 35.3849C31.9252 35.3849 32.2885 35.2058 32.5155 34.8924C32.7426 34.5789 32.8788 34.0415 32.8788 33.325C32.8788 32.6981 32.7426 32.2503 32.5155 31.892C32.2431 31.5785 31.9252 31.3994 31.4711 31.3994C31.0624 31.3994 30.6991 31.5785 30.472 31.892C30.2449 32.2503 30.1541 32.7429 30.1541 33.4594Z" fill="#00AEEF"/>
<path d="M37.3753 30.1006L37.4207 30.8619C37.8748 30.2798 38.5106 29.9663 39.2826 29.9663C39.9638 29.9663 40.5087 30.1902 40.8266 30.5932C41.1445 30.9963 41.3261 31.6232 41.3261 32.4293V36.6835H39.5551V32.474C39.5551 32.1158 39.4642 31.8471 39.328 31.668C39.1918 31.4889 38.9647 31.3993 38.556 31.3993C38.0565 31.3993 37.6932 31.6232 37.4661 32.0262V36.6835H35.6951V30.1006H37.3753Z" fill="#00AEEF"/>
<path d="M44.4144 30.1006L44.4598 30.8171C44.9139 30.235 45.5497 29.9663 46.3217 29.9663C47.1845 29.9663 47.7294 30.2798 48.0473 30.9515C48.5014 30.2798 49.1826 29.9663 50 29.9663C50.7266 29.9663 51.2261 30.1902 51.5894 30.5932C51.9527 30.9963 52.089 31.6232 52.089 32.474V36.6835H50.4087V32.474C50.4087 32.1158 50.3179 31.8471 50.1817 31.668C50.0454 31.4889 49.773 31.3993 49.4097 31.3993C48.8647 31.3993 48.5014 31.668 48.3198 32.1606V36.6835H46.5487V32.474C46.5487 32.071 46.4579 31.8023 46.3217 31.6232C46.1854 31.4441 45.913 31.3545 45.5497 31.3545C45.0501 31.3545 44.6868 31.5784 44.4598 31.9815V36.6387H42.6887V30.1006H44.4144Z" fill="#00AEEF"/>
<path d="M56.5824 36.8178C55.6287 36.8178 54.8567 36.5043 54.221 35.9222C53.6306 35.34 53.3127 34.534 53.3127 33.5488V33.3697C53.3127 32.698 53.449 32.1158 53.676 31.5784C53.9485 31.0411 54.3118 30.638 54.7659 30.3693C55.22 30.1006 55.765 29.9663 56.3553 29.9663C57.2636 29.9663 57.9447 30.235 58.4897 30.8171C58.9892 31.3993 59.2617 32.2054 59.2617 33.2353V33.9518H55.0838C55.1292 34.3996 55.3109 34.7131 55.5833 34.9818C55.8558 35.2505 56.2191 35.3848 56.6732 35.3848C57.3544 35.3848 57.8539 35.1609 58.2626 34.6683L59.1255 35.6535C58.853 36.0118 58.4897 36.3252 58.081 36.5491C57.6269 36.7283 57.1273 36.8178 56.5824 36.8178ZM56.4007 31.3993C56.0375 31.3993 55.765 31.5336 55.5379 31.7576C55.3109 31.9815 55.1746 32.3397 55.1292 32.7875H57.5815V32.6532C57.5815 32.2501 57.4906 31.9815 57.2636 31.7576C57.0365 31.4889 56.764 31.3993 56.4007 31.3993Z" fill="#00AEEF"/>
<path d="M61.9874 30.1006L62.0328 30.8619C62.4869 30.2798 63.1227 29.9663 63.8947 29.9663C64.5758 29.9663 65.1208 30.1902 65.4387 30.5932C65.7566 30.9963 65.9382 31.6232 65.9382 32.4293V36.6835H64.1671V32.474C64.1671 32.1158 64.0763 31.8471 63.9401 31.668C63.8038 31.4889 63.5314 31.3993 63.1227 31.3993C62.6231 31.3993 62.2598 31.6232 62.0328 32.0262V36.6835H60.2617V30.1006H61.9874Z" fill="#00AEEF"/>
<path d="M69.482 28.4883V30.1004H70.6173V31.3991H69.482V34.6681C69.482 34.892 69.5274 35.0711 69.6183 35.2054C69.7091 35.295 69.8907 35.3846 70.1632 35.3846C70.3449 35.3846 70.5265 35.3846 70.6627 35.3398V36.6832C70.2994 36.7728 69.9816 36.8623 69.6183 36.8623C68.3922 36.8623 67.7564 36.2354 67.7564 34.9815V31.3991H66.7573V30.1004H67.711V28.4883H69.482V28.4883Z" fill="#00AEEF"/>
<path d="M6.67551 45.3263C6.67551 46.3563 6.44845 47.1623 5.99433 47.7445C5.54021 48.3266 4.90445 48.6401 4.13245 48.6401C3.45127 48.6401 2.95174 48.4162 2.54303 47.9236V51.0135H0.771973V41.9677H2.4068L2.45221 42.5947C2.86092 42.1021 3.45127 41.8334 4.13245 41.8334C4.94986 41.8334 5.58562 42.1468 5.99433 42.729C6.44845 43.3112 6.67551 44.162 6.67551 45.2367V45.3263V45.3263ZM4.90445 45.192C4.90445 44.565 4.81362 44.1172 4.58657 43.759C4.35951 43.4455 4.04162 43.2664 3.63292 43.2664C3.08798 43.2664 2.72468 43.4903 2.49762 43.8933V46.5802C2.72468 47.028 3.08798 47.2519 3.63292 47.2519C4.49574 47.2519 4.90445 46.5802 4.90445 45.192Z" fill="#00AEEF"/>
<path d="M11.5355 43.6246C11.3085 43.5799 11.0814 43.5799 10.8998 43.5799C10.2186 43.5799 9.80989 43.8038 9.58283 44.2516V48.5506H7.81177V41.9677H9.44659L9.492 42.7738C9.8553 42.1469 10.3094 41.8782 10.9452 41.8782C11.1268 41.8782 11.3085 41.923 11.4901 41.9677L11.5355 43.6246Z" fill="#00AEEF"/>
<path d="M11.9431 45.1917C11.9431 44.52 12.0794 43.9378 12.3064 43.4452C12.5789 42.9527 12.8968 42.5496 13.3963 42.2362C13.8504 41.9675 14.3954 41.8331 15.0311 41.8331C15.8939 41.8331 16.6205 42.1018 17.2109 42.6392C17.7558 43.1766 18.0737 43.9378 18.1645 44.8782V45.3261C18.1645 46.356 17.8921 47.1621 17.3017 47.7442C16.7568 48.3712 15.9848 48.6399 15.0311 48.6399C14.0775 48.6399 13.3509 48.3264 12.7605 47.7442C12.2156 47.1173 11.8977 46.3112 11.8977 45.2813V45.1917H11.9431ZM13.6688 45.3261C13.6688 45.953 13.805 46.4456 14.0321 46.7591C14.2591 47.0725 14.6224 47.2516 15.0311 47.2516C15.4398 47.2516 15.8031 47.0725 16.0302 46.7591C16.2572 46.4456 16.3935 45.9082 16.3935 45.1917C16.3935 44.5648 16.2572 44.117 16.0302 43.7587C15.8031 43.4005 15.4398 43.2661 15.0311 43.2661C14.6224 43.2661 14.2591 43.4452 14.0321 43.7587C13.805 44.0722 13.6688 44.6096 13.6688 45.3261Z" fill="#00AEEF"/>
<path d="M19.0271 45.1971C19.0271 44.1671 19.2542 43.361 19.7537 42.7341C20.2532 42.1072 20.889 41.7937 21.7064 41.7937C22.433 41.7937 22.9779 42.0624 23.3866 42.555L23.4775 41.928H25.0669V48.287C25.0669 48.8691 24.9306 49.3617 24.6582 49.8095C24.3857 50.2573 24.0224 50.5708 23.5683 50.7947C23.1142 51.0186 22.5238 51.1082 21.888 51.1082C21.3885 51.1082 20.9344 51.0186 20.4803 50.8395C20.0262 50.6604 19.6629 50.3917 19.4358 50.0782L20.2078 49.0035C20.6619 49.4961 21.1615 49.72 21.7972 49.72C22.2513 49.72 22.6146 49.5856 22.8871 49.3617C23.1596 49.093 23.2958 48.7796 23.2958 48.287V47.9735C22.8871 48.4213 22.3422 48.6452 21.7064 48.6452C20.9344 48.6452 20.2986 48.3317 19.7991 47.7048C19.2996 47.0779 19.0725 46.2718 19.0725 45.2418V45.1971H19.0271ZM20.7982 45.3314C20.7982 45.9136 20.9344 46.4062 21.1615 46.7196C21.3885 47.0779 21.7064 47.2122 22.1605 47.2122C22.7055 47.2122 23.0688 46.9883 23.2958 46.6301V43.8536C23.0688 43.4506 22.7055 43.2715 22.1605 43.2715C21.7518 43.2715 21.3885 43.4506 21.1615 43.8089C20.9344 44.1223 20.7982 44.6597 20.7982 45.3314Z" fill="#00AEEF"/>
<path d="M30.1544 43.6249C29.9274 43.5801 29.7003 43.5801 29.5187 43.5801C28.8375 43.5801 28.4288 43.804 28.2017 44.2518V48.5508H26.4307V41.968H28.0655L28.1109 42.774C28.4742 42.1471 28.9283 41.8784 29.5641 41.8784C29.7457 41.8784 29.9274 41.9232 30.109 41.968L30.1544 43.6249Z" fill="#00AEEF"/>
<path d="M34.6491 48.5503C34.5583 48.3712 34.5128 48.192 34.4674 47.9681C34.0587 48.4607 33.5138 48.6846 32.8326 48.6846C32.1968 48.6846 31.6519 48.5055 31.2432 48.1025C30.8345 47.7442 30.6074 47.2516 30.6074 46.6695C30.6074 45.953 30.8799 45.4156 31.3794 45.0574C31.879 44.6991 32.651 44.4752 33.6046 44.4752H34.422V44.117C34.422 43.8035 34.3312 43.5796 34.195 43.4005C34.0587 43.2213 33.7862 43.1318 33.4684 43.1318C33.1959 43.1318 32.9234 43.2213 32.7872 43.3557C32.6055 43.49 32.5147 43.7139 32.5147 43.9378H30.7437C30.7437 43.5348 30.8799 43.2213 31.107 42.8631C31.334 42.5496 31.6519 42.2809 32.106 42.1018C32.5147 41.9227 33.0142 41.8331 33.5592 41.8331C34.3766 41.8331 35.0124 42.057 35.4665 42.4601C35.9206 42.8631 36.1931 43.4452 36.1931 44.1617V47.0277C36.1931 47.6547 36.2839 48.1473 36.4655 48.4607V48.5503H34.6491V48.5503ZM33.2413 47.3412C33.5138 47.3412 33.7408 47.2964 33.9679 47.1621C34.195 47.0277 34.3312 46.8934 34.4674 46.7143V45.5947H33.8317C32.9688 45.5947 32.4693 45.9082 32.4239 46.4904V46.5799C32.4239 46.8038 32.5147 46.983 32.651 47.1173C32.7418 47.2516 32.9688 47.3412 33.2413 47.3412Z" fill="#00AEEF"/>
<path d="M39.2364 41.9675L39.2818 42.684C39.7359 42.1018 40.3717 41.8331 41.1437 41.8331C42.0065 41.8331 42.5515 42.1466 42.8693 42.8183C43.3235 42.1466 44.0046 41.8331 44.822 41.8331C45.5486 41.8331 46.0482 42.057 46.4115 42.4601C46.7748 42.8631 46.911 43.49 46.911 44.3409V48.5503H45.1399V44.3409C45.1399 43.9826 45.0491 43.7139 44.9129 43.5348C44.7766 43.3557 44.5042 43.2661 44.1409 43.2661C43.5959 43.2661 43.2326 43.5348 43.051 44.0274V48.5503H41.2799V44.3409C41.2799 43.9378 41.1891 43.6692 41.0529 43.49C40.9166 43.3109 40.6442 43.2213 40.2809 43.2213C39.7813 43.2213 39.418 43.4452 39.191 43.8483V48.5055H37.4199V41.9675H39.2364Z" fill="#00AEEF"/>
<path d="M50.0433 41.962L50.0887 42.6785C50.5428 42.0963 51.1786 41.8276 51.9506 41.8276C52.8134 41.8276 53.3583 42.1411 53.6762 42.8128C54.1303 42.1411 54.8115 41.8276 55.6289 41.8276C56.3555 41.8276 56.855 42.0515 57.2183 42.4546C57.5816 42.8576 57.7179 43.4845 57.7179 44.3354V48.5448H55.9468V44.3354C55.9468 43.9771 55.856 43.7084 55.7197 43.5293C55.5835 43.3502 55.311 43.2606 54.9478 43.2606C54.4028 43.2606 54.0395 43.5293 53.8579 44.0219V48.5448H52.223V44.3354C52.223 43.9323 52.1322 43.6637 51.996 43.4845C51.8597 43.3054 51.5873 43.2158 51.224 43.2158C50.7245 43.2158 50.3612 43.4398 50.1341 43.8428V48.5H48.363V41.962H50.0433Z" fill="#00AEEF"/>
<path d="M62.2135 48.6791C61.2598 48.6791 60.4878 48.3657 59.8521 47.7835C59.2617 47.2014 58.9438 46.3953 58.9438 45.4101V45.231C58.9438 44.5593 59.0801 43.9771 59.3071 43.4398C59.5796 42.9024 59.9429 42.4994 60.397 42.2307C60.8511 41.962 61.3961 41.8276 61.9864 41.8276C62.8947 41.8276 63.5758 42.0963 64.1208 42.6785C64.6203 43.2606 64.8928 44.0667 64.8928 45.0967V45.8132H60.7149C60.7603 46.261 60.942 46.5744 61.2144 46.8431C61.4869 47.1118 61.8502 47.2461 62.3043 47.2461C62.9855 47.2461 63.485 47.0222 63.8937 46.5297L64.7566 47.5148C64.4841 47.8731 64.1208 48.1866 63.7121 48.4105C63.258 48.5448 62.7584 48.6791 62.2135 48.6791ZM62.0319 43.2606C61.6686 43.2606 61.3961 43.395 61.169 43.6189C60.942 43.8428 60.8057 44.201 60.7603 44.6488H63.2126V44.5145C63.2126 44.1115 63.1217 43.8428 62.8947 43.6189C62.6676 43.3502 62.3951 43.2606 62.0319 43.2606Z" fill="#00AEEF"/>
</svg>
